<?xml version="1.0" encoding="UTF-8" standalone="no"?>
<svg width="64px" height="64px" viewBox="0 0 64 64" version="1.1" xmlns="http://www.w3.org/2000/svg" xmlns:xlink="http://www.w3.org/1999/xlink">
    <!-- Generator: Sketch 44.1 (41455) - http://www.bohemiancoding.com/sketch -->
    <title>帮买帮送@2x</title>
    <desc>Created with Sketch.</desc>
    <defs>
        <linearGradient x1="0%" y1="50%" x2="100%" y2="50%" id="linearGradient-1">
            <stop stop-color="#59C3FF" offset="0%"></stop>
            <stop stop-color="#0E95FF" offset="100%"></stop>
        </linearGradient>
    </defs>
    <g id="64×64px" stroke="none" stroke-width="1" fill="none" fill-rule="evenodd">
        <g id="帮买帮送@2x">
            <g id="Page-1" fill="url(#linearGradient-1)">
                <path d="M64,32 C64,49.673 49.673,64 32,64 C14.327,64 0,49.673 0,32 C0,14.327 14.327,0 32,0 C49.673,0 64,14.327 64,32" id="Fill-1"></path>
            </g>
            <g id="Page-1" transform="translate(15.000000, 14.000000)" stroke="#FFFFFF" stroke-width="3" stroke-linecap="round" stroke-linejoin="round">
                <path d="M16.5,34.5 L22.2990147,34.4852941 C27.3698971,34.4852941 31.4803382,30.3748529 31.4803382,25.3039706 L31.4803382,18.8773529" id="Stroke-1"></path>
                <path d="M34.5,17.4944208 C34.5,11.3009048 31.1860953,5.88144088 26.2340719,2.91126491 C23.6814664,1.38023671 20.6936022,0.5 17.5,0.5 C8.11084848,0.5 0.5,8.10835067 0.5,17.4944208 L0.5,23.4579175 C0.5,25.937043 2.51012121,27.5 4.99109091,27.5 L11.9852197,27.5 C13.2165705,27.5 14.2844242,26.6090186 14.2844242,24.9819241 L14.2844242,24.1067954 C14.2844242,21.2156839 16.6283636,18.8725138 19.5204242,18.8725138 L34.5,18.8725138 L34.5,17.4944208 Z" id="Stroke-3"></path>
            </g>
        </g>
    </g>
</svg>