<?xml version="1.0" standalone="no"?><!DOCTYPE svg PUBLIC "-//W3C//DTD SVG 1.1//EN" "http://www.w3.org/Graphics/SVG/1.1/DTD/svg11.dtd"><svg t="1515468876711" class="icon" style="" viewBox="0 0 1024 1024" version="1.1" xmlns="http://www.w3.org/2000/svg" p-id="5995" xmlns:xlink="http://www.w3.org/1999/xlink" width="200" height="200"><defs><style type="text/css"></style></defs><path d="M768 426.666667v42.666666H213.333333V213.333333h85.333334v170.666667h384V213.333333h85.333333v213.333334z m0 256v85.333333H213.333333v-85.333333h554.666667zM682.666667 213.333333v85.333334H298.666667V213.333333h384zM213.333333 384v384H128V384h85.333333z m640 0v384h-85.333333V384h85.333333zM362.666667 640a64 64 0 1 1 0-128 64 64 0 0 1 0 128z m256 0a64 64 0 1 1 0-128 64 64 0 0 1 0 128z m192 128v85.333333h-85.333334v-85.333333h85.333334zM256 768v85.333333H170.666667v-85.333333h85.333333z" fill="#d81e06" p-id="5996"></path></svg>